<?xml version="1.0" encoding="utf-8"?>
<!-- Generator: Adobe Illustrator 19.1.0, SVG Export Plug-In . SVG Version: 6.00 Build 0)  -->
<!DOCTYPE svg PUBLIC "-//W3C//DTD SVG 1.1//EN" "http://www.w3.org/Graphics/SVG/1.1/DTD/svg11.dtd">
<svg version="1.1" id="Layer_1" xmlns="http://www.w3.org/2000/svg" xmlns:xlink="http://www.w3.org/1999/xlink" x="0px" y="0px"
	 width="800px" height="600px" viewBox="0 0 800 600" enable-background="new 0 0 800 600" xml:space="preserve">
<path fill="#444444" d="M122,101h-4v-2c0-1.1-0.9-2-2-2c-1.1,0-2,0.9-2,2v2h-8v-2c0-1.1-0.9-2-2-2c-1.1,0-2,0.9-2,2v2h-4
	c-2.2,0-4,1.8-4,4v20c0,2.2,1.8,4,4,4h24c2.2,0,4-1.8,4-4v-20C126,102.8,124.2,101,122,101z M122,125H98v-17h24V125z"/>
<path fill="#444444" d="M168,266.1v11c0,2.2,1.8,4,4,4h20c2.2,0,4-1.8,4-4v-11c0-2.2-1.8-4-4-4h-20C169.8,262.1,168,263.9,168,266.1
	z M192,277.1h-20v-10h20V277.1z"/>
<path fill="#444444" d="M194,101h-4v-2c0-1.1-0.9-2-2-2c-1.1,0-2,0.9-2,2v2h-8v-2c0-1.1-0.9-2-2-2c-1.1,0-2,0.9-2,2v2h-4
	c-2.2,0-4,1.8-4,4v20c0,2.2,1.8,4,4,4h24c2.2,0,4-1.8,4-4v-20C198,102.8,196.2,101,194,101z M194,125h-24v-17h24V125z"/>
<polygon fill="#444444" points="180,122 184,122 184,111 180,111 176,115 180,115 "/>
<rect x="188.4" y="418.3" transform="matrix(-0.7071 -0.7071 0.7071 -0.7071 32.6532 854.0579)" fill="#444444" width="9.6" height="4"/>
<path fill="#444444" d="M122,255.3h-6.7l2.9-2.9c0.8-0.8,0.8-2,0-2.8c-0.8-0.8-2-0.8-2.8,0l-5.4,5.4l-5.4-5.4c-0.8-0.8-2-0.8-2.8,0
	c-0.8,0.8-0.8,2,0,2.8l2.9,2.9H98c-2.2,0-4,1.8-4,4v18c0,2.2,1.8,4,4,4h24c2.2,0,4-1.8,4-4v-18C126,257.1,124.2,255.3,122,255.3z
	 M122,277.3H98v-18h24V277.3z"/>
<rect x="102" y="263.3" fill="#444444" width="16" height="10"/>
<path fill="#444444" d="M266,249.1h-24c-2.2,0-4,1.8-4,4v16c0,2.2,1.8,4,4,4h24c2.2,0,4-1.8,4-4v-16
	C270,250.9,268.2,249.1,266,249.1z M266,269.1h-24v-16h24V269.1z"/>
<path fill="#444444" d="M98,207.5h24c2.2,0,4-1.8,4-4v-24c0-2.2-1.8-4-4-4H98c-2.2,0-4,1.8-4,4v24C94,205.7,95.8,207.5,98,207.5z
	 M98,179.5h24v24H98V179.5z"/>
<rect x="246" y="257.1" fill="#444444" width="16" height="8"/>
<path fill="#444444" d="M241,324.6v24c0,2.2,1.8,4,4,4h18c2.2,0,4-1.8,4-4v-24c0-2.2-1.8-4-4-4h-18C242.8,320.6,241,322.4,241,324.6
	z M263,344.6h-18v-20h18V344.6z"/>
<rect x="249" y="328.6" fill="#444444" width="10" height="12"/>
<path fill="#444444" d="M258,281.1c1.1,0,2-0.9,2-2s-0.9-2-2-2h-8c-1.1,0-2,0.9-2,2s0.9,2,2,2H258z"/>
<path fill="#444444" d="M124,325.6h-6h-6v-3c0-1.1-0.9-2-2-2c-1.1,0-2,0.9-2,2v3h-6h-6c-1.1,0-2,0.9-2,2s0.9,2,2,2h2v19
	c0,2.2,1.8,4,4,4h16c2.2,0,4-1.8,4-4v-19h2c1.1,0,2-0.9,2-2S125.1,325.6,124,325.6z M118,348.6h-16v-19h16V348.6z"/>
<polygon fill="#444444" points="112,185.5 108,185.5 108,189.5 104,189.5 104,193.5 108,193.5 108,197.5 112,197.5 112,193.5 
	116,193.5 116,189.5 112,189.5 "/>
<path fill="#444444" d="M314,207.5h24c2.2,0,4-1.8,4-4v-24c0-2.2-1.8-4-4-4h-24c-2.2,0-4,1.8-4,4v24
	C310,205.7,311.8,207.5,314,207.5z M314,179.5h24v24h-24V179.5z"/>
<path fill="#444444" d="M386,129h24c2.2,0,4-1.8,4-4v-24c0-2.2-1.8-4-4-4h-24c-2.2,0-4,1.8-4,4v24C382,127.2,383.8,129,386,129z
	 M386,101h24v17h-24V101z"/>
<path fill="#444444" d="M314,129h24c2.2,0,4-1.8,4-4v-24c0-2.2-1.8-4-4-4v4v24h-24v-24v-4c-2.2,0-4,1.8-4,4v24
	C310,127.2,311.8,129,314,129z"/>
<polygon fill="#444444" points="328,184.5 324,184.5 324,192.5 320,192.5 326,198.5 332,192.5 328,192.5 "/>
<polygon fill="#444444" points="259.7,188.7 256.8,185.8 254,188.7 251.2,185.8 248.3,188.7 251.2,191.5 248.3,194.3 251.2,197.2 
	254,194.3 256.8,197.2 259.7,194.3 256.8,191.5 "/>
<path fill="#444444" d="M170,207.5h24c2.2,0,4-1.8,4-4v-24c0-2.2-1.8-4-4-4h-24c-2.2,0-4,1.8-4,4v24
	C166,205.7,167.8,207.5,170,207.5z M170,179.5h24v24h-24V179.5z"/>
<rect x="176" y="189.5" fill="#444444" width="12" height="4"/>
<rect x="462" y="196" fill="#444444" width="16" height="4"/>
<rect x="318" y="97" fill="#444444" width="16" height="24"/>
<path fill="#444444" d="M242,207.5h24c2.2,0,4-1.8,4-4v-24c0-2.2-1.8-4-4-4h-24c-2.2,0-4,1.8-4,4v24
	C238,205.7,239.8,207.5,242,207.5z M242,179.5h24v24h-24V179.5z"/>
<path fill="#444444" d="M386,207.5h24c2.2,0,4-1.8,4-4v-24c0-2.2-1.8-4-4-4h-24c-2.2,0-4,1.8-4,4v24
	C382,205.7,383.8,207.5,386,207.5z M386,179.5h24v24h-24V179.5z"/>
<polygon fill="#444444" points="392,190.5 396,190.5 396,198.5 400,198.5 400,190.5 404,190.5 398,184.5 "/>
<path fill="#444444" d="M482,176h-24c-2.2,0-4,1.8-4,4v24c0,2.2,1.8,4,4,4h24c2.2,0,4-1.8,4-4v-24C486,177.8,484.2,176,482,176z
	 M482,204h-24v-24h10v7h-4l6,6l6-6h-4v-7h10V204z"/>
<rect x="534" y="196" fill="#444444" width="16" height="4"/>
<path fill="#444444" d="M554,176v4v24h-24v-24v-4c-2.2,0-4,1.8-4,4v24c0,2.2,1.8,4,4,4h24c2.2,0,4-1.8,4-4v-24
	C558,177.8,556.2,176,554,176z"/>
<path fill="#444444" d="M198,340.6v-16c0-2.2-1.8-4-4-4h-16c-2.2,0-4,1.8-4,4v16v4h4h16C196.2,344.6,198,342.8,198,340.6z
	 M178,324.6h16v16h-16V324.6z"/>
<path fill="#444444" d="M166,332.6v16c0,2.2,1.8,4,4,4h16c2.2,0,4-1.8,4-4h-4h-16v-16v-4C167.8,328.6,166,330.4,166,332.6z"/>
<polygon fill="#444444" points="540,176 540,186 536,186 542,192 548,186 544,186 544,176 "/>
<path fill="#444444" d="M602,208h24c2.2,0,4-1.8,4-4v-24c0-2.2-1.8-4-4-4v4v24h-24v-24v-4c-2.2,0-4,1.8-4,4v24
	C598,206.2,599.8,208,602,208z"/>
<polygon fill="#444444" points="612,176 612,192 608,192 614,198 620,192 616,192 616,176 "/>
<path fill="#444444" d="M386,278.1h24c2.2,0,4-1.8,4-4v-18c0-2.2-1.8-4-4-4h-24c-2.2,0-4,1.8-4,4v18
	C382,276.3,383.8,278.1,386,278.1z M386,274.1v-15.6l12,10.4l0-5.8l-8.5-7h17l-8.5,7v5.8l12-10.3v15.5H386z"/>
<path fill="#444444" d="M482,97h-24c-2.2,0-4,1.8-4,4v24c0,2.2,1.8,4,4,4h24c2.2,0,4-1.8,4-4v-24C486,98.8,484.2,97,482,97z
	 M482,118h-6c0,3.3-2.7,6-6,6c-3.3,0-6-2.7-6-6h-6v-17h24V118z"/>
<rect x="246" y="105" fill="#444444" width="16" height="9"/>
<path fill="#444444" d="M242,129h24c2.2,0,4-1.8,4-4v-24c0-2.2-1.8-4-4-4h-24c-2.2,0-4,1.8-4,4v24C238,127.2,239.8,129,242,129z
	 M242,101h24v17h-6c0,3.3-2.7,6-6,6c-3.3,0-6-2.7-6-6h-6V101z"/>
<path fill="#444444" d="M554,105h-4v-4c0-2.2-1.8-4-4-4h-8c-2.2,0-4,1.8-4,4v4h-4c-2.2,0-4,1.8-4,4v16c0,2.2,1.8,4,4,4h24
	c2.2,0,4-1.8,4-4v-16C558,106.8,556.2,105,554,105z M538,101h8v4h-8V101z M554,125h-24v-16h24V125z"/>
<path fill="#444444" d="M602,129h24c2.2,0,4-1.8,4-4v-16c0-2.2-1.8-4-4-4h-4c0-2.2-1.8-4-4-4h-8c-2.2,0-4,1.8-4,4h-4
	c-2.2,0-4,1.8-4,4v16C598,127.2,599.8,129,602,129z M602,109h8v-2v-2h8v2v2h8v16h-24V109z"/>
<circle fill="#444444" cx="614" cy="117" r="4"/>
<path fill="#444444" d="M674,208h24c2.2,0,4-1.8,4-4v-24c0-2.2-1.8-4-4-4v4v24h-24v-24v-4c-2.2,0-4,1.8-4,4v24
	C670,206.2,671.8,208,674,208z"/>
<polygon fill="#444444" points="684,176 684,192 680,192 686,198 692,192 688,192 688,176 "/>
<path fill="#444444" d="M674,129h24c2.2,0,4-1.8,4-4v-16c0-2.2-1.8-4-4-4h-4c0-2.2-1.8-4-4-4h-8c-2.2,0-4,1.8-4,4h-4
	c-2.2,0-4,1.8-4,4v16C670,127.2,671.8,129,674,129z M674,109h8v-2v-2h8v2v2h8v16h-24V109z"/>
<circle fill="#444444" cx="686" cy="117" r="4"/>
<polygon fill="#444444" points="320.4,267.9 313.8,274.5 310,270.6 310,281.1 320.5,281.1 316.7,277.3 323.2,270.8 "/>
<polygon fill="#444444" points="331.6,262.3 338.2,255.8 342,259.6 342,249.1 331.5,249.1 335.3,252.9 328.8,259.5 "/>
<polygon fill="#444444" points="310,249.1 310,259.6 313.8,255.8 320.4,262.3 323.2,259.5 316.7,252.9 320.5,249.1 "/>
<polygon fill="#444444" points="342,281.1 342,270.6 338.2,274.5 331.6,267.9 328.8,270.8 335.3,277.3 331.5,281.1 "/>
<path fill="#444444" d="M482,249.1h-24c-2.2,0-4,1.8-4,4v24c0,2.2,1.8,4,4,4h24c2.2,0,4-1.8,4-4v-24
	C486,250.9,484.2,249.1,482,249.1z M482,277.1h-24v-24h24V277.1z"/>
<rect x="462" y="257.1" fill="#444444" width="6" height="6"/>
<rect x="472" y="257.1" fill="#444444" width="6" height="6"/>
<rect x="462" y="267.1" fill="#444444" width="6" height="6"/>
<rect x="472" y="267.1" fill="#444444" width="6" height="6"/>
<path fill="#444444" d="M542,249.1c-8.8,0-16,7.2-16,16c0,8.8,7.2,16,16,16s16-7.2,16-16C558,256.3,550.8,249.1,542,249.1z
	 M542,277.1c-6.6,0-12-5.4-12-12c0-6.6,5.4-12,12-12c6.6,0,12,5.4,12,12C554,271.8,548.6,277.1,542,277.1z"/>
<path fill="#444444" d="M542,321.3c-8.8,0-16,7.2-16,16c0,8.8,7.2,16,16,16s16-7.2,16-16C558,328.4,550.8,321.3,542,321.3z
	 M542,349.3c-6.6,0-12-5.4-12-12c0-6.6,5.4-12,12-12c6.6,0,12,5.4,12,12C554,343.9,548.6,349.3,542,349.3z"/>
<polygon fill="#444444" points="540,265.1 540,271.1 547,265.1 540,259.1 "/>
<path fill="#444444" d="M614,249.1c-8.8,0-16,7.2-16,16c0,8.8,7.2,16,16,16c8.8,0,16-7.2,16-16C630,256.3,622.8,249.1,614,249.1z
	 M614,277.1c-6.6,0-12-5.4-12-12c0-6.6,5.4-12,12-12c6.6,0,12,5.4,12,12C626,271.8,620.6,277.1,614,277.1z"/>
<polygon fill="#444444" points="614,264.1 609,259.1 609,265.1 609,271.1 614,266.1 614,271.1 621,265.1 614,259.1 "/>
<path fill="#444444" d="M686,249.1c-8.8,0-16,7.2-16,16c0,8.8,7.2,16,16,16c8.8,0,16-7.2,16-16C702,256.3,694.8,249.1,686,249.1z
	 M686,277.1c-6.6,0-12-5.4-12-12c0-6.6,5.4-12,12-12c6.6,0,12,5.4,12,12C698,271.8,692.6,277.1,686,277.1z"/>
<polygon fill="#444444" points="686,259.1 679,265.1 686,271.1 686,266.1 691,271.1 691,265.1 691,259.1 686,264.1 "/>
<path fill="#444444" d="M686,321.3c-8.8,0-16,7.2-16,16c0,8.8,7.2,16,16,16c8.8,0,16-7.2,16-16C702,328.4,694.8,321.3,686,321.3z
	 M686,349.3c-6.6,0-12-5.4-12-12c0-6.6,5.4-12,12-12c6.6,0,12,5.4,12,12C698,343.9,692.6,349.3,686,349.3z"/>
<rect x="681" y="332.3" fill="#444444" width="3" height="10"/>
<rect x="688" y="332.3" fill="#444444" width="3" height="10"/>
<path fill="#444444" d="M614,321.3c-8.8,0-16,7.2-16,16c0,8.8,7.2,16,16,16c8.8,0,16-7.2,16-16C630,328.4,622.8,321.3,614,321.3z
	 M614,349.3c-6.6,0-12-5.4-12-12c0-6.6,5.4-12,12-12c6.6,0,12,5.4,12,12C626,343.9,620.6,349.3,614,349.3z"/>
<rect x="610" y="333.3" fill="#444444" width="8" height="8"/>
<polygon fill="#444444" points="544,331.3 540,331.3 540,335.3 536,335.3 536,339.3 540,339.3 540,343.3 544,343.3 544,339.3 
	548,339.3 548,335.3 544,335.3 "/>
<path fill="#444444" d="M470,321.3c-8.8,0-16,7.2-16,16c0,8.8,7.2,16,16,16c8.8,0,16-7.2,16-16C486,328.4,478.8,321.3,470,321.3z
	 M470,349.3c-6.6,0-12-5.4-12-12c0-6.6,5.4-12,12-12c6.6,0,12,5.4,12,12C482,343.9,476.6,349.3,470,349.3z"/>
<polygon fill="#444444" points="472.8,331.6 470,334.4 467.2,331.6 464.3,334.4 467.2,337.3 464.3,340.1 467.2,342.9 470,340.1 
	472.8,342.9 475.7,340.1 472.8,337.3 475.7,334.4 "/>
<path fill="#444444" d="M398,321.3c-8.8,0-16,7.2-16,16c0,8.8,7.2,16,16,16c8.8,0,16-7.2,16-16C414,328.4,406.9,321.3,398,321.3z
	 M398,349.3c-6.6,0-12-5.4-12-12c0-6.6,5.4-12,12-12c6.6,0,12,5.4,12,12C410,343.9,404.7,349.3,398,349.3z"/>
<rect x="392" y="335.3" fill="#444444" width="12" height="4"/>
<rect x="109" y="473.3" fill="#444444" width="9" height="4"/>
<path fill="#444444" d="M326,321.3c-8.8,0-16,7.2-16,16c0,8.8,7.2,16,16,16c8.8,0,16-7.2,16-16C342,328.4,334.8,321.3,326,321.3z
	 M326,325.3c2.6,0,5,0.8,6.9,2.2l-16.7,16.7c-1.4-2-2.2-4.4-2.2-6.9C314,330.6,319.4,325.3,326,325.3z M326,349.3
	c-2.6,0-5-0.8-6.9-2.2l16.7-16.7c1.4,2,2.2,4.4,2.2,6.9C338,343.9,332.6,349.3,326,349.3z"/>
<path fill="#444444" d="M123.4,398.9c-0.8-0.8-1.8-1.5-2.9-1.9c-1.1-0.5-2.3-0.7-3.5-0.7c-1.2,0-2.4,0.3-3.5,0.9
	c-1.1,0.5-2,1.3-2.9,2.3c-0.2,0.3-0.4,0.5-0.6,0.8c-0.2-0.3-0.4-0.6-0.6-0.8c-0.8-0.9-1.8-1.7-2.9-2.3c-1.1-0.5-2.3-0.9-3.5-0.9
	c-1.2,0-2.4,0.3-3.5,0.7c-1.1,0.5-2,1.1-2.9,1.9c-0.8,0.8-1.5,1.8-1.9,2.9c-0.5,1.1-0.7,2.3-0.7,3.5s0.3,2.4,0.7,3.5
	c0.5,1.1,1.1,2,1.9,2.9c0.8,0.8,12.3,11.2,13.4,11.6c1.1-0.5,12.5-10.8,13.4-11.6c0.8-0.8,1.5-1.8,1.9-2.9c0.5-1.1,0.7-2.3,0.7-3.5
	s-0.3-2.4-0.7-3.5C124.8,400.7,124.2,399.7,123.4,398.9z"/>
<path fill="#444444" d="M178,393.3c-6.6,0-12,5.4-12,12c0,6.6,5.4,12,12,12c6.6,0,12-5.4,12-12C190,398.6,184.6,393.3,178,393.3z
	 M178,413.3c-4.4,0-8-3.6-8-8c0-4.4,3.6-8,8-8c4.4,0,8,3.6,8,8C186,409.7,182.4,413.3,178,413.3z"/>
<path fill="#444444" d="M464,407.3v8c0,1.1,0.9,2,2,2h8c1.1,0,2-0.9,2-2v-9c0-0.4-0.1-0.8-0.4-1.2l-8-11c-0.4-0.5-1-0.8-1.6-0.8
	s-1.2,0.3-1.6,0.8l-8,11c-0.2,0.3-0.4,0.8-0.4,1.2v13c0,3.3,2.7,6,6,6h16c3.3,0,6-2.7,6-6v-14h-4v14c0,1.1-0.9,2-2,2h-16
	c-1.1,0-2-0.9-2-2v-12.3l6-8.2l6,8.2v6.3h-4v-6H464z"/>
<rect x="238" y="393.3" fill="#444444" width="32" height="4"/>
<rect x="238" y="407.3" fill="#444444" width="32" height="4"/>
<rect x="238" y="421.3" fill="#444444" width="32" height="4"/>
<path fill="#444444" d="M316,425c0.3,0.2,0.7,0.3,1,0.3c0.3,0,0.7-0.1,1-0.3l8-4.5l8,4.5c0.6,0.3,1.4,0.3,2,0c0.6-0.4,1-1,1-1.7v-24
	c0-3.3-2.7-6-6-6h-10c-3.3,0-6,2.7-6,6v24C315,424,315.4,424.6,316,425z M319,399.3c0-1.1,0.9-2,2-2h10c1.1,0,2,0.9,2,2v20.6l-6-3.3
	c-0.6-0.3-1.3-0.3-1.9,0l-6,3.3V399.3z"/>
<path fill="#444444" d="M408,393.3h-8h-0.8H390c-3.3,0-6,2.7-6,6v24c0,0.7,0.4,1.4,1,1.7c0.3,0.2,0.7,0.3,1,0.3c0.3,0,0.7-0.1,1-0.3
	l8-4.5l8,4.5c0.6,0.3,1.4,0.3,2,0c0.6-0.4,1-1,1-1.7v-18.4c0.6,0.2,1.3,0.4,2,0.4c3.3,0,6-2.7,6-6S411.3,393.3,408,393.3z
	 M402,419.9l-6-3.3c-0.6-0.3-1.3-0.3-1.9,0l-6,3.3v-20.6c0-1.1,0.9-2,2-2h9.2h0.8c1.1,0,2,0.9,2,2V419.9z M408,401.3
	c-1.1,0-2-0.9-2-2v-2h2c1.1,0,2,0.9,2,2C410,400.4,409.1,401.3,408,401.3z"/>
<path fill="#444444" d="M554,402.3c0-2.2-1.8-4-4-4h-20c-2.2,0-4,1.8-4,4v14c0,2.2,1.8,4,4,4h20c2.2,0,4-1.8,4-4v-3h4v-8h-4V402.3z
	 M550,416.3h-20v-14h20V416.3z"/>
<rect x="534" y="406.3" fill="#444444" width="12" height="6"/>
<path fill="#444444" d="M626,402.3c0-2.2-1.8-4-4-4h-20c-2.2,0-4,1.8-4,4v14c0,2.2,1.8,4,4,4h20c2.2,0,4-1.8,4-4v-3h4v-8h-4V402.3z
	 M622,416.3h-20v-14h20V416.3z"/>
<rect x="606" y="406.3" fill="#444444" width="7" height="6"/>
<path fill="#444444" d="M698,402.3c0-2.2-1.8-4-4-4h-20c-2.2,0-4,1.8-4,4v14c0,2.2,1.8,4,4,4h20c2.2,0,4-1.8,4-4v-3h4v-8h-4V402.3z
	 M694,416.3h-20v-14h20V416.3z"/>
<path fill="#444444" d="M122,465.3h-20c-2.2,0-4,1.8-4,4v2h-2c-1.1,0-2,0.9-2,2s0.9,2,2,2h2v4h-2c-1.1,0-2,0.9-2,2s0.9,2,2,2h2v4h-2
	c-1.1,0-2,0.9-2,2s0.9,2,2,2h2v2c0,2.2,1.8,4,4,4h20c2.2,0,4-1.8,4-4v-24C126,467.1,124.2,465.3,122,465.3z M122,493.3h-17v-24h17
	V493.3z"/>
<rect x="166" y="465.3" fill="#444444" width="8" height="8"/>
<rect x="190" y="465.3" fill="#444444" width="8" height="8"/>
<rect x="178" y="465.3" fill="#444444" width="8" height="8"/>
<rect x="166" y="477.3" fill="#444444" width="8" height="8"/>
<rect x="190" y="477.3" fill="#444444" width="8" height="8"/>
<rect x="178" y="477.3" fill="#444444" width="8" height="8"/>
<rect x="166" y="489.3" fill="#444444" width="8" height="8"/>
<rect x="190" y="489.3" fill="#444444" width="8" height="8"/>
<rect x="178" y="489.3" fill="#444444" width="8" height="8"/>
<path fill="#444444" d="M267.4,470.4c-0.8-0.8-1.8-1.5-2.9-1.9c-1.1-0.5-2.3-0.7-3.5-0.7c-1.2,0-2.4,0.3-3.5,0.9
	c-1.1,0.5-2,1.3-2.9,2.3c-0.2,0.3-0.4,0.5-0.6,0.8c-0.2-0.3-0.4-0.6-0.6-0.8c-0.8-0.9-1.8-1.7-2.9-2.3c-1.1-0.5-2.3-0.9-3.5-0.9
	c-1.2,0-2.4,0.3-3.5,0.7c-1.1,0.5-2,1.1-2.9,1.9c-0.8,0.8-1.5,1.8-1.9,2.9c-0.5,1.1-0.7,2.3-0.7,3.5s0.3,2.4,0.7,3.5
	c0.5,1.1,1.1,2,1.9,2.9c0.8,0.8,12.3,11.2,13.4,11.6c1.1-0.5,12.5-10.8,13.4-11.6c0.8-0.8,1.5-1.8,1.9-2.9c0.5-1.1,0.7-2.3,0.7-3.5
	s-0.3-2.4-0.7-3.5C268.8,472.2,268.2,471.2,267.4,470.4z M260,483.3h-4v4h-4v-4h-4v-4h4v-4h4v4h4V483.3z"/>
<path fill="#444444" d="M339.4,470.4c-0.8-0.8-1.8-1.5-2.9-1.9c-1.1-0.5-2.3-0.7-3.5-0.7c-1.2,0-2.4,0.3-3.5,0.9
	c-1.1,0.5-2,1.3-2.9,2.3c-0.2,0.3-0.4,0.5-0.6,0.8c-0.2-0.3-0.4-0.6-0.6-0.8c-0.8-0.9-1.8-1.7-2.9-2.3c-1.1-0.5-2.3-0.9-3.5-0.9
	c-1.2,0-2.4,0.3-3.5,0.7c-1.1,0.5-2,1.1-2.9,1.9c-0.8,0.8-1.5,1.8-1.9,2.9c-0.5,1.1-0.7,2.3-0.7,3.5s0.3,2.4,0.7,3.5
	c0.5,1.1,1.1,2,1.9,2.9c0.8,0.8,12.3,11.2,13.4,11.6c1.1-0.5,12.5-10.8,13.4-11.6c0.8-0.8,1.5-1.8,1.9-2.9c0.5-1.1,0.7-2.3,0.7-3.5
	s-0.3-2.4-0.7-3.5C340.8,472.2,340.2,471.2,339.4,470.4z M332,482.3h-4h-4h-4v-4h4h4h4V482.3z"/>
<path fill="#444444" d="M386,493.3v-24v-4c-2.2,0-4,1.8-4,4v24c0,2.2,1.8,4,4,4h24c2.2,0,4-1.8,4-4h-4H386z"/>
<rect x="390" y="477.3" fill="#444444" width="4" height="12"/>
<rect x="398" y="473.3" fill="#444444" width="4" height="16"/>
<rect x="406" y="469.3" fill="#444444" width="4" height="20"/>
<path fill="#444444" d="M484,479.3h-2.2c-0.3-1.8-1-3.5-2-4.9l1.5-1.5c0.8-0.8,0.8-2,0-2.8c-0.8-0.8-2-0.8-2.8,0l-1.5,1.5
	c-1.4-1-3.1-1.7-4.9-2v-2.2c0-1.1-0.9-2-2-2c-1.1,0-2,0.9-2,2v2.2c-1.8,0.3-3.5,1-4.9,2l-1.5-1.5c-0.8-0.8-2-0.8-2.8,0
	c-0.8,0.8-0.8,2,0,2.8l1.5,1.5c-1,1.4-1.7,3.1-2,4.9H456c-1.1,0-2,0.9-2,2s0.9,2,2,2h2.2c0.3,1.8,1,3.5,2,4.9l-1.5,1.5
	c-0.8,0.8-0.8,2,0,2.8c0.8,0.8,2,0.8,2.8,0l1.5-1.5c1.4,1,3.1,1.7,4.9,2v2.2c0,1.1,0.9,2,2,2s2-0.9,2-2v-2.2c1.8-0.3,3.5-1,4.9-2
	l1.5,1.5c0.8,0.8,2,0.8,2.8,0c0.8-0.8,0.8-2,0-2.8l-1.5-1.5c1-1.4,1.7-3.1,2-4.9h2.2c1.1,0,2-0.9,2-2S485.1,479.3,484,479.3z
	 M470,489.3c-4.4,0-8-3.6-8-8c0-4.4,3.6-8,8-8c4.4,0,8,3.6,8,8C478,485.7,474.4,489.3,470,489.3z"/>
<circle fill="#444444" cx="470" cy="481.3" r="3"/>
<path fill="#444444" d="M554.5,477c0-0.1-0.1-0.1-0.1-0.2l-11-11c-0.8-0.8-2-0.8-2.8,0l-9.3,9.3l-5.2,5.2h3v10.8c0,3.3,2.7,6,6,6h14
	c3.3,0,6-2.7,6-6v-10.8h3L554.5,477z M551,491.3c0,1.1-0.9,2-2,2h-4v-12h-6v12h-4c-1.1,0-2-0.9-2-2v-12.2l9-9l9,9V491.3z"/>
<path fill="#444444" d="M625,478.3c0-7.2-4.9-13-11-13c-6.1,0-11,5.8-11,13c0,3.2,1,6.2,2.7,8.5l-7.7,7.7l2.8,2.8l7.7-7.7
	c1.6,1.1,3.5,1.7,5.5,1.7c2,0,3.8-0.6,5.5-1.7l7.7,7.7l2.8-2.8l-7.7-7.7C624,484.5,625,481.5,625,478.3z M614,487.3c-3.9,0-7-4-7-9
	s3.1-9,7-9c3.9,0,7,4,7,9S617.9,487.3,614,487.3z"/>
<path fill="#444444" d="M190.9,258.1v-5c0-2.2-1.8-4-4-4h-10c-2.2,0-4,1.8-4,4v9h4v-8h10v4L190.9,258.1z"/>
<path fill="#444444" d="M697,483.3c-0.3,0-0.7,0-1,0.1v-10.1v-1v-3c0-2.2-1.8-4-4-4l-18,2c-2.2,0-4,1.8-4,4v3v1v15h0.1
	c-0.1,0.3-0.1,0.7-0.1,1c0,3.3,2.7,6,6,6c3.3,0,6-2.7,6-6c0-3.3-2.7-6-6-6c-0.7,0-1.4,0.1-2,0.3v-6.3l18-2v11h0c0,0,0,0,0,0
	c0,2.8,2.2,5,5,5c2.8,0,5-2.2,5-5C702,485.5,699.8,483.3,697,483.3z M674,475.3v-1v-3l18-2v3v1L674,475.3z"/>
</svg>
